<mxfile host="drawio-plugin" modified="2021-04-20T21:09:28.063Z" agent="5.0 (Windows NT 6.2; Win64; x64) AppleWebKit/537.36 (KHTML, like Gecko) Chrome/87.0.4280.141 Safari/537.36" version="13.7.9" etag="HmJCaw-9hVacrQdigeXZ" type="embed"><diagram id="iVjDqTNM1_lBZTttoFnn" name="Page-1"><mxGraphModel dx="1059" dy="991" grid="1" gridSize="10" guides="1" tooltips="1" connect="1" arrows="1" fold="1" page="1" pageScale="1" pageWidth="827" pageHeight="1169" math="1" shadow="0"><root><mxCell id="0"/><mxCell id="1" parent="0"/></root></mxGraphModel></diagram></mxfile>